<svg width="9px" height="8px" viewBox="0 0 9 8" version="1.1" xmlns="http://www.w3.org/2000/svg" xmlns:xlink="http://www.w3.org/1999/xlink">
    <g id="Page-1" stroke="none" stroke-width="1" fill="none" fill-rule="evenodd">
        <g id="Group" transform="translate(-2.000000, -2.000000)" fill="currentColor" fill-rule="nonzero">
            <g id="caret-right" transform="translate(8.781846, 3.966731) rotate(-40.000000) translate(-8.781846, -3.966731) translate(6.781846, 0.466731)">
                <path d="M4,3.5 C4,3.616375 3.95155556,3.72575 3.868,3.8075625 L0.756888889,6.8700625 C0.673777778,6.951875 0.562222222,7 0.444444444,7 C0.201333333,7 0,6.8018125 0,6.5625 L0,0.4375 C0,0.1981875 0.201333333,0 0.444444444,0 C0.562666667,0 0.673777778,0.0476875 0.756888889,0.1299375 L3.868,3.1924375 C3.95111111,3.27425 4,3.3840625 4,3.5 Z" id="Shape"></path>
            </g>
            <g id="caret-left" transform="translate(3.781846, 7.966731) rotate(-40.000000) translate(-3.781846, -7.966731) translate(1.781846, 4.466731)">
                <path d="M4,0.4375 L4,6.5625 C4,6.8018125 3.79866667,7 3.55555556,7 C3.43733333,7 3.32622222,6.9523125 3.24311111,6.8700625 L0.132,3.8075625 C0.0488888889,3.72575 8.8817842e-16,3.6159375 8.8817842e-16,3.5 C8.8817842e-16,3.3840625 0.0484444444,3.27425 0.132,3.1924375 L3.24311111,0.1299375 C3.32622222,0.048125 3.43777778,0 3.55555556,0 C3.79866667,0 4,0.1981875 4,0.4375 Z" id="Shape"></path>
            </g>
        </g>
    </g>
</svg>